<svg xmlns="http://www.w3.org/2000/svg" xmlns:xlink="http://www.w3.org/1999/xlink" width="500" zoomAndPan="magnify" viewBox="0 0 375 374.999991" height="500" preserveAspectRatio="xMidYMid meet" version="1.0"><defs><g/><clipPath id="1675aa6b12"><path d="M 98.351562 120 L 184 120 L 184 213.898438 L 98.351562 213.898438 Z M 98.351562 120 " clip-rule="nonzero"/></clipPath><clipPath id="5f23caa08b"><path d="M 120 93.898438 L 163 93.898438 L 163 121 L 120 121 Z M 120 93.898438 " clip-rule="nonzero"/></clipPath><clipPath id="2d4f138b8d"><path d="M 191 120 L 276.851562 120 L 276.851562 213.898438 L 191 213.898438 Z M 191 120 " clip-rule="nonzero"/></clipPath><clipPath id="6e0be8610e"><path d="M 213 93.898438 L 256 93.898438 L 256 121 L 213 121 Z M 213 93.898438 " clip-rule="nonzero"/></clipPath><clipPath id="03c16501ce"><path d="M 119.132812 253.292969 L 255.632812 253.292969 L 255.632812 281.042969 L 119.132812 281.042969 Z M 119.132812 253.292969 " clip-rule="nonzero"/></clipPath><clipPath id="d90cee7baf"><path d="M 133.039062 253.292969 L 241.957031 253.292969 C 245.648438 253.292969 249.183594 254.757812 251.789062 257.363281 C 254.398438 259.972656 255.863281 263.507812 255.863281 267.195312 C 255.863281 270.882812 254.398438 274.421875 251.789062 277.027344 C 249.183594 279.636719 245.648438 281.101562 241.957031 281.101562 L 133.039062 281.101562 C 129.351562 281.101562 125.816406 279.636719 123.207031 277.027344 C 120.597656 274.421875 119.132812 270.882812 119.132812 267.195312 C 119.132812 263.507812 120.597656 259.972656 123.207031 257.363281 C 125.816406 254.757812 129.351562 253.292969 133.039062 253.292969 Z M 133.039062 253.292969 " clip-rule="nonzero"/></clipPath></defs><g clip-path="url(#1675aa6b12)"><path fill="#16a9d6" d="M 147.375 153.121094 C 149.210938 152.617188 151.113281 153.6875 151.625 155.519531 C 155.734375 170.332031 168.613281 181.027344 183.683594 182.605469 L 183.683594 131.441406 C 183.683594 125.628906 178.972656 120.914062 173.160156 120.914062 L 108.859375 120.914062 C 103.046875 120.914062 98.332031 125.628906 98.332031 131.441406 L 98.332031 203.316406 C 98.332031 209.128906 103.046875 213.835938 108.859375 213.835938 L 173.160156 213.835938 C 178.972656 213.835938 183.683594 209.128906 183.683594 203.316406 L 183.683594 189.535156 C 165.519531 187.925781 149.914062 175.140625 144.976562 157.363281 C 144.472656 155.527344 145.542969 153.632812 147.375 153.121094 Z M 167.769531 148.90625 C 170.359375 148.90625 172.457031 151.023438 172.457031 153.640625 C 172.457031 156.25 170.359375 158.378906 167.769531 158.378906 C 165.183594 158.378906 163.078125 156.25 163.078125 153.640625 C 163.078125 151.023438 165.183594 148.90625 167.769531 148.90625 Z M 167.769531 148.90625 " fill-opacity="1" fill-rule="nonzero"/></g><g clip-path="url(#5f23caa08b)"><path fill="#000000" d="M 162 120.914062 L 155.113281 120.914062 L 155.113281 114.941406 C 155.113281 107.171875 148.789062 100.847656 141.015625 100.847656 C 133.242188 100.847656 126.917969 107.171875 126.917969 114.941406 L 126.917969 120.914062 L 120.027344 120.914062 L 120.027344 114.941406 C 120.027344 103.367188 129.445312 93.960938 141.015625 93.960938 C 152.582031 93.960938 162.007812 103.375 162.007812 114.941406 L 162.007812 120.914062 Z M 162 120.914062 " fill-opacity="1" fill-rule="nonzero"/></g><g clip-path="url(#2d4f138b8d)"><path fill="#ed1c24" d="M 266.273438 120.914062 L 201.972656 120.914062 C 196.160156 120.914062 191.449219 125.628906 191.449219 131.441406 L 191.449219 182.613281 C 206.519531 181.035156 219.398438 170.332031 223.523438 155.519531 C 224.027344 153.6875 225.921875 152.609375 227.757812 153.121094 C 229.59375 153.632812 230.667969 155.527344 230.164062 157.363281 C 225.21875 175.140625 209.613281 187.933594 191.449219 189.535156 L 191.449219 203.316406 C 191.449219 209.128906 196.160156 213.835938 201.972656 213.835938 L 266.273438 213.835938 C 272.085938 213.835938 276.800781 209.128906 276.800781 203.316406 L 276.800781 131.441406 C 276.800781 125.628906 272.085938 120.914062 266.273438 120.914062 Z M 207.367188 158.378906 C 204.773438 158.378906 202.675781 156.25 202.675781 153.640625 C 202.675781 151.023438 204.773438 148.90625 207.367188 148.90625 C 209.957031 148.90625 212.0625 151.023438 212.0625 153.640625 C 212.0625 156.25 209.957031 158.378906 207.367188 158.378906 Z M 207.367188 158.378906 " fill-opacity="1" fill-rule="nonzero"/></g><g clip-path="url(#6e0be8610e)"><path fill="#000000" d="M 255.121094 120.914062 L 248.230469 120.914062 L 248.230469 114.941406 C 248.230469 107.171875 241.90625 100.847656 234.132812 100.847656 C 226.359375 100.847656 220.035156 107.171875 220.035156 114.941406 L 220.035156 120.914062 L 213.144531 120.914062 L 213.144531 114.941406 C 213.144531 103.367188 222.566406 93.960938 234.132812 93.960938 C 245.707031 93.960938 255.128906 103.375 255.128906 114.941406 L 255.128906 120.914062 Z M 255.121094 120.914062 " fill-opacity="1" fill-rule="nonzero"/></g><g clip-path="url(#03c16501ce)"><g clip-path="url(#d90cee7baf)"><path stroke-linecap="butt" transform="matrix(0.75, 0, 0, 0.75, 119.134458, 253.291858)" fill="none" stroke-linejoin="miter" d="M 18.539475 0.00148131 L 163.763452 0.00148131 C 168.685328 0.00148131 173.39887 1.954607 176.872829 5.428565 C 180.351996 8.907732 182.305121 13.621275 182.305121 18.537942 C 182.305121 23.454609 180.351996 28.17336 176.872829 31.647319 C 173.39887 35.126486 168.685328 37.079611 163.763452 37.079611 L 18.539475 37.079611 C 13.622807 37.079611 8.909265 35.126486 5.430098 31.647319 C 1.950931 28.17336 -0.00219437 23.454609 -0.00219437 18.537942 C -0.00219437 13.621275 1.950931 8.907732 5.430098 5.428565 C 8.909265 1.954607 13.622807 0.00148131 18.539475 0.00148131 Z M 18.539475 0.00148131 " stroke="#16a9d6" stroke-width="4" stroke-opacity="1" stroke-miterlimit="4"/></g></g><g fill="#000000" fill-opacity="1"><g transform="translate(92.910946, 246.808298)"><g><path d="M 13.78125 -13.09375 L 13.78125 -19.203125 C 13.78125 -19.640625 13.941406 -20.019531 14.265625 -20.34375 C 14.585938 -20.664062 14.96875 -20.828125 15.40625 -20.828125 L 17.859375 -20.828125 C 18.296875 -20.828125 18.675781 -20.664062 19 -20.34375 C 19.320312 -20.019531 19.484375 -19.640625 19.484375 -19.203125 L 19.484375 -1.625 C 19.484375 -1.1875 19.320312 -0.804688 19 -0.484375 C 18.675781 -0.160156 18.296875 0 17.859375 0 L 15.40625 0 C 14.96875 0 14.585938 -0.160156 14.265625 -0.484375 C 13.941406 -0.804688 13.78125 -1.1875 13.78125 -1.625 L 13.78125 -8.296875 C 13.78125 -8.472656 13.695312 -8.5625 13.53125 -8.5625 L 8.046875 -8.5625 C 7.867188 -8.5625 7.78125 -8.472656 7.78125 -8.296875 L 7.78125 -1.625 C 7.78125 -1.1875 7.617188 -0.804688 7.296875 -0.484375 C 6.972656 -0.160156 6.59375 0 6.15625 0 L 3.703125 0 C 3.265625 0 2.882812 -0.160156 2.5625 -0.484375 C 2.238281 -0.804688 2.078125 -1.1875 2.078125 -1.625 L 2.078125 -19.203125 C 2.078125 -19.640625 2.238281 -20.019531 2.5625 -20.34375 C 2.882812 -20.664062 3.265625 -20.828125 3.703125 -20.828125 L 6.15625 -20.828125 C 6.59375 -20.828125 6.972656 -20.664062 7.296875 -20.34375 C 7.617188 -20.019531 7.78125 -19.640625 7.78125 -19.203125 L 7.78125 -13.09375 C 7.78125 -12.925781 7.867188 -12.84375 8.046875 -12.84375 L 13.53125 -12.84375 C 13.695312 -12.84375 13.78125 -12.925781 13.78125 -13.09375 Z M 13.78125 -13.09375 "/></g></g></g><g fill="#000000" fill-opacity="1"><g transform="translate(114.439464, 246.808298)"><g><path d="M 8.359375 -8.28125 L 11.609375 -8.28125 C 11.785156 -8.28125 11.851562 -8.351562 11.8125 -8.5 L 10.046875 -15.953125 C 10.046875 -15.972656 10.023438 -15.984375 9.984375 -15.984375 C 9.960938 -15.984375 9.953125 -15.972656 9.953125 -15.953125 L 8.1875 -8.5 C 8.144531 -8.351562 8.203125 -8.28125 8.359375 -8.28125 Z M 8.671875 -20.828125 L 11.4375 -20.828125 C 11.914062 -20.828125 12.347656 -20.679688 12.734375 -20.390625 C 13.128906 -20.109375 13.398438 -19.738281 13.546875 -19.28125 L 19.40625 -1.546875 C 19.53125 -1.160156 19.472656 -0.804688 19.234375 -0.484375 C 19.003906 -0.160156 18.6875 0 18.28125 0 L 15.46875 0 C 14.988281 0 14.5625 -0.144531 14.1875 -0.4375 C 13.820312 -0.738281 13.582031 -1.113281 13.46875 -1.5625 L 12.953125 -3.765625 C 12.910156 -3.921875 12.804688 -4 12.640625 -4 L 7.328125 -4 C 7.179688 -4 7.085938 -3.921875 7.046875 -3.765625 L 6.53125 -1.5625 C 6.414062 -1.113281 6.171875 -0.738281 5.796875 -0.4375 C 5.429688 -0.144531 5.007812 0 4.53125 0 L 1.828125 0 C 1.429688 0 1.113281 -0.160156 0.875 -0.484375 C 0.632812 -0.804688 0.582031 -1.160156 0.71875 -1.546875 L 6.5625 -19.28125 C 6.71875 -19.738281 6.988281 -20.109375 7.375 -20.390625 C 7.757812 -20.679688 8.191406 -20.828125 8.671875 -20.828125 Z M 8.671875 -20.828125 "/></g></g></g><g fill="#000000" fill-opacity="1"><g transform="translate(134.51374, 246.808298)"><g><path d="M 8.9375 -10.5625 C 10.164062 -10.5625 11.113281 -10.84375 11.78125 -11.40625 C 12.445312 -11.976562 12.78125 -12.789062 12.78125 -13.84375 C 12.78125 -15.832031 11.5 -16.828125 8.9375 -16.828125 C 8.570312 -16.828125 8.21875 -16.800781 7.875 -16.75 C 7.71875 -16.707031 7.640625 -16.601562 7.640625 -16.4375 L 7.640625 -10.90625 C 7.640625 -10.75 7.71875 -10.648438 7.875 -10.609375 C 8.332031 -10.578125 8.6875 -10.5625 8.9375 -10.5625 Z M 8.359375 -21.109375 C 14.828125 -21.109375 18.0625 -18.78125 18.0625 -14.125 C 18.0625 -11.59375 17.332031 -9.675781 15.875 -8.375 C 14.414062 -7.070312 12.289062 -6.421875 9.5 -6.421875 C 9.082031 -6.421875 8.550781 -6.441406 7.90625 -6.484375 C 7.726562 -6.484375 7.640625 -6.40625 7.640625 -6.25 L 7.640625 -1.625 C 7.640625 -1.1875 7.476562 -0.804688 7.15625 -0.484375 C 6.832031 -0.160156 6.453125 0 6.015625 0 L 3.703125 0 C 3.265625 0 2.882812 -0.160156 2.5625 -0.484375 C 2.238281 -0.804688 2.078125 -1.1875 2.078125 -1.625 L 2.078125 -19.0625 C 2.078125 -19.519531 2.226562 -19.925781 2.53125 -20.28125 C 2.84375 -20.644531 3.226562 -20.847656 3.6875 -20.890625 C 5.300781 -21.035156 6.859375 -21.109375 8.359375 -21.109375 Z M 8.359375 -21.109375 "/></g></g></g><g fill="#000000" fill-opacity="1"><g transform="translate(153.190795, 246.808298)"><g><path d="M 8.9375 -10.5625 C 10.164062 -10.5625 11.113281 -10.84375 11.78125 -11.40625 C 12.445312 -11.976562 12.78125 -12.789062 12.78125 -13.84375 C 12.78125 -15.832031 11.5 -16.828125 8.9375 -16.828125 C 8.570312 -16.828125 8.21875 -16.800781 7.875 -16.75 C 7.71875 -16.707031 7.640625 -16.601562 7.640625 -16.4375 L 7.640625 -10.90625 C 7.640625 -10.75 7.71875 -10.648438 7.875 -10.609375 C 8.332031 -10.578125 8.6875 -10.5625 8.9375 -10.5625 Z M 8.359375 -21.109375 C 14.828125 -21.109375 18.0625 -18.78125 18.0625 -14.125 C 18.0625 -11.59375 17.332031 -9.675781 15.875 -8.375 C 14.414062 -7.070312 12.289062 -6.421875 9.5 -6.421875 C 9.082031 -6.421875 8.550781 -6.441406 7.90625 -6.484375 C 7.726562 -6.484375 7.640625 -6.40625 7.640625 -6.25 L 7.640625 -1.625 C 7.640625 -1.1875 7.476562 -0.804688 7.15625 -0.484375 C 6.832031 -0.160156 6.453125 0 6.015625 0 L 3.703125 0 C 3.265625 0 2.882812 -0.160156 2.5625 -0.484375 C 2.238281 -0.804688 2.078125 -1.1875 2.078125 -1.625 L 2.078125 -19.0625 C 2.078125 -19.519531 2.226562 -19.925781 2.53125 -20.28125 C 2.84375 -20.644531 3.226562 -20.847656 3.6875 -20.890625 C 5.300781 -21.035156 6.859375 -21.109375 8.359375 -21.109375 Z M 8.359375 -21.109375 "/></g></g></g><g fill="#000000" fill-opacity="1"><g transform="translate(171.867851, 246.808298)"><g><path d="M 9.8125 -12.296875 L 12.609375 -19.3125 C 12.796875 -19.769531 13.085938 -20.132812 13.484375 -20.40625 C 13.890625 -20.6875 14.332031 -20.828125 14.8125 -20.828125 L 17.953125 -20.828125 C 18.304688 -20.828125 18.578125 -20.671875 18.765625 -20.359375 C 18.960938 -20.046875 18.972656 -19.726562 18.796875 -19.40625 L 12.75 -7.9375 C 12.675781 -7.800781 12.640625 -7.644531 12.640625 -7.46875 L 12.640625 -1.625 C 12.640625 -1.1875 12.476562 -0.804688 12.15625 -0.484375 C 11.832031 -0.160156 11.453125 0 11.015625 0 L 8.421875 0 C 7.984375 0 7.601562 -0.160156 7.28125 -0.484375 C 6.957031 -0.804688 6.796875 -1.1875 6.796875 -1.625 L 6.796875 -7.46875 C 6.796875 -7.644531 6.753906 -7.800781 6.671875 -7.9375 L 0.625 -19.40625 C 0.457031 -19.726562 0.46875 -20.046875 0.65625 -20.359375 C 0.84375 -20.671875 1.117188 -20.828125 1.484375 -20.828125 L 4.734375 -20.828125 C 5.210938 -20.828125 5.648438 -20.6875 6.046875 -20.40625 C 6.441406 -20.132812 6.738281 -19.769531 6.9375 -19.3125 L 9.734375 -12.296875 C 9.734375 -12.273438 9.75 -12.265625 9.78125 -12.265625 C 9.800781 -12.265625 9.8125 -12.273438 9.8125 -12.296875 Z M 9.8125 -12.296875 "/></g></g></g><g fill="#000000" fill-opacity="1"><g transform="translate(191.286289, 246.808298)"><g/></g></g><g fill="#000000" fill-opacity="1"><g transform="translate(200.353927, 246.808298)"><g><path d="M 9.078125 -13.265625 C 12.054688 -12.460938 14.15625 -11.503906 15.375 -10.390625 C 16.59375 -9.285156 17.203125 -7.867188 17.203125 -6.140625 C 17.203125 -4.046875 16.476562 -2.453125 15.03125 -1.359375 C 13.59375 -0.265625 11.414062 0.28125 8.5 0.28125 C 6.488281 0.28125 4.519531 -0.164062 2.59375 -1.0625 C 2.175781 -1.25 1.882812 -1.566406 1.71875 -2.015625 C 1.5625 -2.460938 1.550781 -2.921875 1.6875 -3.390625 L 2.046875 -4.734375 C 2.160156 -5.117188 2.40625 -5.378906 2.78125 -5.515625 C 3.164062 -5.660156 3.539062 -5.640625 3.90625 -5.453125 C 5.65625 -4.578125 7.28125 -4.140625 8.78125 -4.140625 C 10.5 -4.140625 11.359375 -4.753906 11.359375 -5.984375 C 11.359375 -6.785156 10.597656 -7.40625 9.078125 -7.84375 C 6.296875 -8.644531 4.316406 -9.601562 3.140625 -10.71875 C 1.960938 -11.84375 1.375 -13.265625 1.375 -14.984375 C 1.375 -16.859375 2.09375 -18.347656 3.53125 -19.453125 C 4.976562 -20.554688 7.015625 -21.109375 9.640625 -21.109375 C 11.640625 -21.109375 13.515625 -20.832031 15.265625 -20.28125 C 15.703125 -20.15625 16.03125 -19.875 16.25 -19.4375 C 16.46875 -19.007812 16.53125 -18.570312 16.4375 -18.125 L 16.125 -16.828125 C 16.039062 -16.429688 15.804688 -16.132812 15.421875 -15.9375 C 15.046875 -15.75 14.660156 -15.734375 14.265625 -15.890625 C 12.796875 -16.421875 11.347656 -16.6875 9.921875 -16.6875 C 9.035156 -16.6875 8.363281 -16.53125 7.90625 -16.21875 C 7.445312 -15.90625 7.21875 -15.492188 7.21875 -14.984375 C 7.21875 -14.179688 7.835938 -13.609375 9.078125 -13.265625 Z M 9.078125 -13.265625 "/></g></g></g><g fill="#000000" fill-opacity="1"><g transform="translate(218.888414, 246.808298)"><g><path d="M 13.78125 -13.09375 L 13.78125 -19.203125 C 13.78125 -19.640625 13.941406 -20.019531 14.265625 -20.34375 C 14.585938 -20.664062 14.96875 -20.828125 15.40625 -20.828125 L 17.859375 -20.828125 C 18.296875 -20.828125 18.675781 -20.664062 19 -20.34375 C 19.320312 -20.019531 19.484375 -19.640625 19.484375 -19.203125 L 19.484375 -1.625 C 19.484375 -1.1875 19.320312 -0.804688 19 -0.484375 C 18.675781 -0.160156 18.296875 0 17.859375 0 L 15.40625 0 C 14.96875 0 14.585938 -0.160156 14.265625 -0.484375 C 13.941406 -0.804688 13.78125 -1.1875 13.78125 -1.625 L 13.78125 -8.296875 C 13.78125 -8.472656 13.695312 -8.5625 13.53125 -8.5625 L 8.046875 -8.5625 C 7.867188 -8.5625 7.78125 -8.472656 7.78125 -8.296875 L 7.78125 -1.625 C 7.78125 -1.1875 7.617188 -0.804688 7.296875 -0.484375 C 6.972656 -0.160156 6.59375 0 6.15625 0 L 3.703125 0 C 3.265625 0 2.882812 -0.160156 2.5625 -0.484375 C 2.238281 -0.804688 2.078125 -1.1875 2.078125 -1.625 L 2.078125 -19.203125 C 2.078125 -19.640625 2.238281 -20.019531 2.5625 -20.34375 C 2.882812 -20.664062 3.265625 -20.828125 3.703125 -20.828125 L 6.15625 -20.828125 C 6.59375 -20.828125 6.972656 -20.664062 7.296875 -20.34375 C 7.617188 -20.019531 7.78125 -19.640625 7.78125 -19.203125 L 7.78125 -13.09375 C 7.78125 -12.925781 7.867188 -12.84375 8.046875 -12.84375 L 13.53125 -12.84375 C 13.695312 -12.84375 13.78125 -12.925781 13.78125 -13.09375 Z M 13.78125 -13.09375 "/></g></g></g><g fill="#000000" fill-opacity="1"><g transform="translate(240.416933, 246.808298)"><g><path d="M 6.640625 -10.40625 C 6.640625 -6.414062 8.253906 -4.421875 11.484375 -4.421875 C 14.722656 -4.421875 16.34375 -6.414062 16.34375 -10.40625 C 16.34375 -14.40625 14.722656 -16.40625 11.484375 -16.40625 C 8.253906 -16.40625 6.640625 -14.40625 6.640625 -10.40625 Z M 3.6875 -18.234375 C 5.625 -20.148438 8.226562 -21.109375 11.5 -21.109375 C 14.769531 -21.109375 17.367188 -20.148438 19.296875 -18.234375 C 21.234375 -16.328125 22.203125 -13.71875 22.203125 -10.40625 C 22.203125 -7.101562 21.234375 -4.492188 19.296875 -2.578125 C 17.367188 -0.671875 14.769531 0.28125 11.5 0.28125 C 8.226562 0.28125 5.625 -0.671875 3.6875 -2.578125 C 1.757812 -4.492188 0.796875 -7.101562 0.796875 -10.40625 C 0.796875 -13.71875 1.757812 -16.328125 3.6875 -18.234375 Z M 3.6875 -18.234375 "/></g></g></g><g fill="#000000" fill-opacity="1"><g transform="translate(263.399694, 246.808298)"><g><path d="M 8.9375 -10.5625 C 10.164062 -10.5625 11.113281 -10.84375 11.78125 -11.40625 C 12.445312 -11.976562 12.78125 -12.789062 12.78125 -13.84375 C 12.78125 -15.832031 11.5 -16.828125 8.9375 -16.828125 C 8.570312 -16.828125 8.21875 -16.800781 7.875 -16.75 C 7.71875 -16.707031 7.640625 -16.601562 7.640625 -16.4375 L 7.640625 -10.90625 C 7.640625 -10.75 7.71875 -10.648438 7.875 -10.609375 C 8.332031 -10.578125 8.6875 -10.5625 8.9375 -10.5625 Z M 8.359375 -21.109375 C 14.828125 -21.109375 18.0625 -18.78125 18.0625 -14.125 C 18.0625 -11.59375 17.332031 -9.675781 15.875 -8.375 C 14.414062 -7.070312 12.289062 -6.421875 9.5 -6.421875 C 9.082031 -6.421875 8.550781 -6.441406 7.90625 -6.484375 C 7.726562 -6.484375 7.640625 -6.40625 7.640625 -6.25 L 7.640625 -1.625 C 7.640625 -1.1875 7.476562 -0.804688 7.15625 -0.484375 C 6.832031 -0.160156 6.453125 0 6.015625 0 L 3.703125 0 C 3.265625 0 2.882812 -0.160156 2.5625 -0.484375 C 2.238281 -0.804688 2.078125 -1.1875 2.078125 -1.625 L 2.078125 -19.0625 C 2.078125 -19.519531 2.226562 -19.925781 2.53125 -20.28125 C 2.84375 -20.644531 3.226562 -20.847656 3.6875 -20.890625 C 5.300781 -21.035156 6.859375 -21.109375 8.359375 -21.109375 Z M 8.359375 -21.109375 "/></g></g></g><g fill="#000000" fill-opacity="1"><g transform="translate(133.146308, 274.101925)"><g><path d="M 0.84375 -5.921875 C 0.84375 -6.796875 0.96875 -7.601562 1.21875 -8.34375 C 1.476562 -9.082031 1.847656 -9.722656 2.328125 -10.265625 C 2.804688 -10.816406 3.382812 -11.25 4.0625 -11.5625 C 4.75 -11.875 5.535156 -12.03125 6.421875 -12.03125 C 7.285156 -12.03125 8.0625 -11.867188 8.75 -11.546875 C 9.445312 -11.222656 10.035156 -10.785156 10.515625 -10.234375 C 10.992188 -9.679688 11.363281 -9.035156 11.625 -8.296875 C 11.882812 -7.566406 12.015625 -6.773438 12.015625 -5.921875 C 12.015625 -5.078125 11.882812 -4.285156 11.625 -3.546875 C 11.375 -2.804688 11.003906 -2.15625 10.515625 -1.59375 C 10.035156 -1.039062 9.453125 -0.601562 8.765625 -0.28125 C 8.078125 0.0390625 7.296875 0.203125 6.421875 0.203125 C 5.535156 0.203125 4.75 0.0390625 4.0625 -0.28125 C 3.382812 -0.601562 2.804688 -1.039062 2.328125 -1.59375 C 1.847656 -2.15625 1.476562 -2.804688 1.21875 -3.546875 C 0.96875 -4.285156 0.84375 -5.078125 0.84375 -5.921875 Z M 2.484375 -5.921875 C 2.484375 -5.316406 2.566406 -4.726562 2.734375 -4.15625 C 2.910156 -3.582031 3.164062 -3.070312 3.5 -2.625 C 3.84375 -2.1875 4.257812 -1.835938 4.75 -1.578125 C 5.238281 -1.316406 5.796875 -1.1875 6.421875 -1.1875 C 7.066406 -1.1875 7.632812 -1.304688 8.125 -1.546875 C 8.625 -1.785156 9.035156 -2.113281 9.359375 -2.53125 C 9.691406 -2.957031 9.941406 -3.460938 10.109375 -4.046875 C 10.285156 -4.628906 10.375 -5.253906 10.375 -5.921875 C 10.375 -6.535156 10.28125 -7.125 10.09375 -7.6875 C 9.914062 -8.25 9.65625 -8.75 9.3125 -9.1875 C 8.976562 -9.625 8.566406 -9.972656 8.078125 -10.234375 C 7.585938 -10.503906 7.035156 -10.640625 6.421875 -10.640625 C 5.796875 -10.640625 5.238281 -10.519531 4.75 -10.28125 C 4.257812 -10.039062 3.84375 -9.707031 3.5 -9.28125 C 3.164062 -8.851562 2.910156 -8.351562 2.734375 -7.78125 C 2.566406 -7.207031 2.484375 -6.585938 2.484375 -5.921875 Z M 2.484375 -5.921875 "/></g></g></g><g fill="#000000" fill-opacity="1"><g transform="translate(145.99705, 274.101925)"><g><path d="M 3.046875 -9.765625 L 3.046875 0 L 1.515625 0 L 1.515625 -11.828125 L 3.640625 -11.828125 L 8.875 -2 L 8.875 -11.828125 L 10.390625 -11.828125 L 10.390625 0 L 8.296875 0 Z M 3.046875 -9.765625 "/></g></g></g><g fill="#000000" fill-opacity="1"><g transform="translate(157.902143, 274.101925)"><g><path d="M 8.546875 0 L 1.515625 0 L 1.515625 -11.828125 L 3.125 -11.828125 L 3.125 -1.4375 L 8.546875 -1.4375 Z M 8.546875 0 "/></g></g></g><g fill="#000000" fill-opacity="1"><g transform="translate(166.531217, 274.101925)"><g><path d="M 1.515625 0 L 1.515625 -11.828125 L 3.125 -11.828125 L 3.125 0 Z M 1.515625 0 "/></g></g></g><g fill="#000000" fill-opacity="1"><g transform="translate(171.175046, 274.101925)"><g><path d="M 3.046875 -9.765625 L 3.046875 0 L 1.515625 0 L 1.515625 -11.828125 L 3.640625 -11.828125 L 8.875 -2 L 8.875 -11.828125 L 10.390625 -11.828125 L 10.390625 0 L 8.296875 0 Z M 3.046875 -9.765625 "/></g></g></g><g fill="#000000" fill-opacity="1"><g transform="translate(183.080139, 274.101925)"><g><path d="M 1.515625 -11.828125 L 8.609375 -11.828125 L 8.609375 -10.4375 L 3.125 -10.4375 L 3.125 -6.84375 L 7.859375 -6.84375 L 7.859375 -5.484375 L 3.125 -5.484375 L 3.125 -1.390625 L 8.609375 -1.390625 L 8.609375 0 L 1.515625 0 Z M 1.515625 -11.828125 "/></g></g></g><g fill="#000000" fill-opacity="1"><g transform="translate(192.452232, 274.101925)"><g/></g></g><g fill="#000000" fill-opacity="1"><g transform="translate(197.518222, 274.101925)"><g><path d="M 1.3125 -2.34375 C 1.71875 -2.007812 2.175781 -1.734375 2.6875 -1.515625 C 3.195312 -1.304688 3.785156 -1.203125 4.453125 -1.203125 C 5.265625 -1.203125 5.90625 -1.367188 6.375 -1.703125 C 6.851562 -2.046875 7.09375 -2.503906 7.09375 -3.078125 C 7.09375 -3.304688 7.054688 -3.519531 6.984375 -3.71875 C 6.921875 -3.925781 6.789062 -4.125 6.59375 -4.3125 C 6.394531 -4.5 6.117188 -4.6875 5.765625 -4.875 C 5.410156 -5.0625 4.953125 -5.257812 4.390625 -5.46875 C 3.785156 -5.707031 3.269531 -5.941406 2.84375 -6.171875 C 2.425781 -6.398438 2.085938 -6.648438 1.828125 -6.921875 C 1.566406 -7.203125 1.378906 -7.507812 1.265625 -7.84375 C 1.148438 -8.175781 1.09375 -8.554688 1.09375 -8.984375 C 1.09375 -9.398438 1.179688 -9.789062 1.359375 -10.15625 C 1.535156 -10.53125 1.796875 -10.851562 2.140625 -11.125 C 2.484375 -11.40625 2.90625 -11.625 3.40625 -11.78125 C 3.90625 -11.945312 4.476562 -12.03125 5.125 -12.03125 C 5.820312 -12.03125 6.445312 -11.957031 7 -11.8125 C 7.550781 -11.675781 8.09375 -11.476562 8.625 -11.21875 L 8.046875 -9.84375 C 7.660156 -10.070312 7.207031 -10.257812 6.6875 -10.40625 C 6.175781 -10.5625 5.640625 -10.640625 5.078125 -10.640625 C 4.335938 -10.640625 3.753906 -10.492188 3.328125 -10.203125 C 2.898438 -9.921875 2.6875 -9.539062 2.6875 -9.0625 C 2.6875 -8.84375 2.71875 -8.644531 2.78125 -8.46875 C 2.84375 -8.289062 2.960938 -8.117188 3.140625 -7.953125 C 3.328125 -7.796875 3.585938 -7.632812 3.921875 -7.46875 C 4.253906 -7.300781 4.695312 -7.113281 5.25 -6.90625 C 5.90625 -6.65625 6.457031 -6.398438 6.90625 -6.140625 C 7.351562 -5.890625 7.710938 -5.613281 7.984375 -5.3125 C 8.253906 -5.019531 8.445312 -4.707031 8.5625 -4.375 C 8.6875 -4.039062 8.75 -3.671875 8.75 -3.265625 C 8.75 -2.710938 8.640625 -2.222656 8.421875 -1.796875 C 8.210938 -1.367188 7.914062 -1.003906 7.53125 -0.703125 C 7.15625 -0.398438 6.703125 -0.171875 6.171875 -0.015625 C 5.648438 0.128906 5.078125 0.203125 4.453125 0.203125 C 3.628906 0.203125 2.878906 0.09375 2.203125 -0.125 C 1.535156 -0.34375 0.96875 -0.632812 0.5 -1 Z M 1.3125 -2.34375 "/></g></g></g><g fill="#000000" fill-opacity="1"><g transform="translate(207.109835, 274.101925)"><g><path d="M 8.953125 -5.390625 L 3.125 -5.390625 L 3.125 0 L 1.515625 0 L 1.515625 -11.828125 L 3.125 -11.828125 L 3.125 -6.765625 L 8.953125 -6.765625 L 8.953125 -11.828125 L 10.5625 -11.828125 L 10.5625 0 L 8.953125 0 Z M 8.953125 -5.390625 "/></g></g></g><g fill="#000000" fill-opacity="1"><g transform="translate(219.183786, 274.101925)"><g><path d="M 0.84375 -5.921875 C 0.84375 -6.796875 0.96875 -7.601562 1.21875 -8.34375 C 1.476562 -9.082031 1.847656 -9.722656 2.328125 -10.265625 C 2.804688 -10.816406 3.382812 -11.25 4.0625 -11.5625 C 4.75 -11.875 5.535156 -12.03125 6.421875 -12.03125 C 7.285156 -12.03125 8.0625 -11.867188 8.75 -11.546875 C 9.445312 -11.222656 10.035156 -10.785156 10.515625 -10.234375 C 10.992188 -9.679688 11.363281 -9.035156 11.625 -8.296875 C 11.882812 -7.566406 12.015625 -6.773438 12.015625 -5.921875 C 12.015625 -5.078125 11.882812 -4.285156 11.625 -3.546875 C 11.375 -2.804688 11.003906 -2.15625 10.515625 -1.59375 C 10.035156 -1.039062 9.453125 -0.601562 8.765625 -0.28125 C 8.078125 0.0390625 7.296875 0.203125 6.421875 0.203125 C 5.535156 0.203125 4.75 0.0390625 4.0625 -0.28125 C 3.382812 -0.601562 2.804688 -1.039062 2.328125 -1.59375 C 1.847656 -2.15625 1.476562 -2.804688 1.21875 -3.546875 C 0.96875 -4.285156 0.84375 -5.078125 0.84375 -5.921875 Z M 2.484375 -5.921875 C 2.484375 -5.316406 2.566406 -4.726562 2.734375 -4.15625 C 2.910156 -3.582031 3.164062 -3.070312 3.5 -2.625 C 3.84375 -2.1875 4.257812 -1.835938 4.75 -1.578125 C 5.238281 -1.316406 5.796875 -1.1875 6.421875 -1.1875 C 7.066406 -1.1875 7.632812 -1.304688 8.125 -1.546875 C 8.625 -1.785156 9.035156 -2.113281 9.359375 -2.53125 C 9.691406 -2.957031 9.941406 -3.460938 10.109375 -4.046875 C 10.285156 -4.628906 10.375 -5.253906 10.375 -5.921875 C 10.375 -6.535156 10.28125 -7.125 10.09375 -7.6875 C 9.914062 -8.25 9.65625 -8.75 9.3125 -9.1875 C 8.976562 -9.625 8.566406 -9.972656 8.078125 -10.234375 C 7.585938 -10.503906 7.035156 -10.640625 6.421875 -10.640625 C 5.796875 -10.640625 5.238281 -10.519531 4.75 -10.28125 C 4.257812 -10.039062 3.84375 -9.707031 3.5 -9.28125 C 3.164062 -8.851562 2.910156 -8.351562 2.734375 -7.78125 C 2.566406 -7.207031 2.484375 -6.585938 2.484375 -5.921875 Z M 2.484375 -5.921875 "/></g></g></g><g fill="#000000" fill-opacity="1"><g transform="translate(232.034527, 274.101925)"><g><path d="M 1.515625 -11.796875 C 1.992188 -11.847656 2.503906 -11.882812 3.046875 -11.90625 C 3.597656 -11.9375 4.175781 -11.953125 4.78125 -11.953125 C 5.507812 -11.953125 6.160156 -11.863281 6.734375 -11.6875 C 7.304688 -11.507812 7.789062 -11.257812 8.1875 -10.9375 C 8.582031 -10.625 8.878906 -10.242188 9.078125 -9.796875 C 9.285156 -9.359375 9.390625 -8.878906 9.390625 -8.359375 C 9.390625 -7.734375 9.269531 -7.175781 9.03125 -6.6875 C 8.789062 -6.195312 8.453125 -5.78125 8.015625 -5.4375 C 7.578125 -5.101562 7.054688 -4.847656 6.453125 -4.671875 C 5.847656 -4.492188 5.175781 -4.40625 4.4375 -4.40625 C 3.96875 -4.40625 3.53125 -4.421875 3.125 -4.453125 L 3.125 0 L 1.515625 0 Z M 4.640625 -5.75 C 5.660156 -5.75 6.441406 -5.96875 6.984375 -6.40625 C 7.523438 -6.851562 7.796875 -7.457031 7.796875 -8.21875 C 7.796875 -8.957031 7.535156 -9.539062 7.015625 -9.96875 C 6.492188 -10.394531 5.738281 -10.609375 4.75 -10.609375 C 4.445312 -10.609375 4.160156 -10.601562 3.890625 -10.59375 C 3.617188 -10.582031 3.363281 -10.566406 3.125 -10.546875 L 3.125 -5.828125 C 3.300781 -5.804688 3.515625 -5.785156 3.765625 -5.765625 C 4.023438 -5.753906 4.316406 -5.75 4.640625 -5.75 Z M 4.640625 -5.75 "/></g></g></g></svg>